<svg width="84" height="62" fill="none" xmlns="http://www.w3.org/2000/svg"><path opacity=".29" d="M50.61 53.766l.846-.532-.007-.012-.008-.01-.832.554zM47.12 45.7l-.965.263.965-.263zm4.58-30.52l.842.54.004-.006.005-.008-.85-.526zM68.703.792l.895-.447-.434-.867-.88.406.42.908zm1.962 3.924l.383.924.992-.41-.48-.961-.895.447zm-10.9 8.066l.751.66.008-.008.007-.009-.766-.643zM54.097 23.9l.97.242.012-.044.007-.046-.989-.152zm0 9.156l-.948.316.537 1.612 1.148-1.252-.737-.676zm25.07-.872l.69-.723-.008-.009-.009-.008-.673.74zM78.95 56.6l-.674-.739-.009.008-.008.008.691.723zM5.701 53.766l.847-.532-.007-.012-.008-.01-.832.554zM2.213 45.7l-.964.263.964-.263zm4.578-30.52l.841.54.005-.006.005-.008-.85-.526zM23.795.792l.895-.447-.434-.867-.88.406.42.908zm1.962 3.924l.383.924.992-.41-.48-.961-.895.447zm-10.9 8.066l.751.66.008-.008.007-.009-.766-.643zM9.19 23.9l.97.242.012-.044.007-.046-.989-.152zm0 9.156l-.948.316.537 1.612 1.148-1.252-.737-.676zm25.07-.872l.69-.723-.008-.009-.009-.008-.673.74zM34.041 56.6l-.674-.739-.008.008-.009.008.691.723zm32.046 3.796c-6.852 0-11.653-2.424-14.631-7.162l-1.693 1.064c3.416 5.436 8.933 8.098 16.324 8.098v-2zm-14.646-7.185c-1.38-2.07-2.504-4.654-3.355-7.774l-1.93.526c.894 3.275 2.095 6.068 3.621 8.358l1.664-1.11zm-3.355-7.774c-.847-3.107-1.273-6.361-1.273-9.765h-2c0 3.572.447 7.004 1.343 10.291l1.93-.526zm-1.273-9.765c0-7.374 1.912-14.015 5.727-19.951l-1.682-1.082c-4.032 6.272-6.045 13.292-6.045 21.033h2zm5.737-19.966C56.21 9.794 61.714 5.12 69.122 1.7l-.838-1.816c-7.706 3.557-13.537 8.474-17.435 14.77l1.7 1.052zM67.809 1.24l1.962 3.924 1.789-.894L69.598.345l-1.79.894zm2.474 2.553C65.913 5.6 62.15 8.388 59 12.139l1.531 1.286C63.484 9.91 66.987 7.32 71.048 5.64l-.765-1.848zm-11.268 8.33c-3.29 3.738-5.289 7.614-5.906 11.626l1.977.304c.545-3.546 2.325-7.081 5.43-10.61l-1.501-1.32zm-5.888 11.535c-.453 1.814-.684 3.567-.684 5.257h2c0-1.508.206-3.097.624-4.772l-1.94-.485zm-.684 5.257c0 1.555.234 3.043.706 4.458l1.897-.632c-.4-1.2-.603-2.474-.603-3.826h-2zm2.392 4.818c2.986-3.258 6.922-4.908 11.906-4.908v-2c-5.479 0-9.973 1.838-13.38 5.556l1.474 1.352zm11.906-4.908c4.885 0 8.772 1.39 11.754 4.1l1.345-1.48c-3.413-3.103-7.81-4.62-13.099-4.62v2zm11.736 4.083c2.963 2.83 4.486 6.69 4.486 11.703h2c0-5.45-1.674-9.874-5.105-13.15l-1.381 1.447zm4.486 11.703c0 4.69-1.573 8.408-4.688 11.252l1.349 1.477c3.57-3.26 5.34-7.535 5.34-12.729h-2zm-4.705 11.267c-3.132 2.996-7.16 4.519-12.17 4.519v2c5.452 0 9.999-1.674 13.553-5.073l-1.383-1.446zM21.18 60.396c-6.851 0-11.653-2.424-14.631-7.162l-1.693 1.064c3.416 5.436 8.933 8.098 16.324 8.098v-2zM6.533 53.211c-1.38-2.07-2.504-4.654-3.355-7.774l-1.93.526c.894 3.275 2.095 6.068 3.621 8.358l1.664-1.11zm-3.355-7.774c-.847-3.107-1.273-6.361-1.273-9.765h-2c0 3.572.447 7.004 1.344 10.291l1.93-.526zm-1.273-9.765c0-7.374 1.912-14.015 5.727-19.951L5.95 14.639C1.918 20.911-.095 27.931-.095 35.672h2zm5.737-19.966C11.302 9.794 16.806 5.12 24.214 1.7l-.838-1.816C15.67 3.441 9.84 8.358 5.941 14.654l1.7 1.052zM22.9 1.24l1.962 3.924 1.789-.894L24.69.345l-1.79.894zm2.474 2.553c-4.37 1.808-8.132 4.596-11.283 8.347l1.531 1.286C18.576 9.91 22.08 7.32 26.14 5.64l-.765-1.848zm-11.268 8.33c-3.29 3.738-5.289 7.614-5.906 11.626l1.977.304c.545-3.546 2.325-7.081 5.43-10.61l-1.501-1.32zM8.219 23.656c-.453 1.814-.684 3.567-.684 5.257h2c0-1.508.206-3.097.624-4.772l-1.94-.485zm-.684 5.257c0 1.555.234 3.043.706 4.458l1.897-.632c-.4-1.2-.603-2.474-.603-3.826h-2zm2.391 4.818c2.987-3.258 6.923-4.908 11.907-4.908v-2c-5.479 0-9.973 1.838-13.38 5.556l1.473 1.352zm11.907-4.908c4.885 0 8.772 1.39 11.754 4.1l1.345-1.48c-3.413-3.103-7.81-4.62-13.099-4.62v2zm11.736 4.083c2.963 2.83 4.486 6.69 4.486 11.703h2c0-5.45-1.674-9.874-5.105-13.15l-1.381 1.447zm4.486 11.703c0 4.69-1.573 8.408-4.688 11.252l1.349 1.477c3.57-3.26 5.34-7.535 5.34-12.729h-2zM33.35 55.877c-3.132 2.996-7.16 4.519-12.17 4.519v2c5.452 0 9.999-1.674 13.553-5.073l-1.383-1.446z" fill="#964F4C"/></svg>