<svg width="303" height="30" fill="none" xmlns="http://www.w3.org/2000/svg"><path d="M.2 29h11.12v-.56c-4-.52-5.2-2.2-5.2-6.24V3.84h.24l10.4 25.2h1.44l9.32-25.2h.2v22.32c0 1.6-1 2.16-3.84 2.28V29h13.8v-.56c-3.36-.12-4.16-.76-4.16-2.28V3.96c0-1.52.8-2.2 4.16-2.32v-.52h-10.2l-7.56 20.56h-.2L11.48 1.12H.2v.52c3.44.08 4.92 1.92 4.92 4.32V22.2c0 4.04-1.16 5.76-4.92 6.24V29z" fill="#000"/><path d="M57.403 25.32c.76 2.12.04 2.96-3.8 3.12V29h14.32v-.56c-3-.44-3.6-1.08-4.48-3.4L54.403.48h-2.72l-8.28 21.44c-1.64 4.12-3.16 5.84-5.76 6.52V29h9.44v-.56c-3.72-.52-4.36-2.04-2.72-6.36l1.36-3.68h9.2l2.48 6.92zm-11.36-7.72l4.32-11.56h.2l4.08 11.56h-8.6zM68.365 29h13.72c10.36 0 14.56-6.96 14.56-14.44 0-7.84-5.04-13.44-15.2-13.44h-13.08v.52c3.32.12 4.16.8 4.16 2.32v22.2c0 1.52-.84 2.16-4.16 2.28V29zm10-.76V1.84h2.4c6.32 0 9.52 2.84 9.52 13.12 0 10.24-2.48 13.28-9.44 13.28h-2.48zm28.867.76h13.84v-.56c-2.88-.12-3.84-.64-3.84-2.28V14.92h11.28v11.24c0 1.64-1 2.16-3.88 2.28V29h13.88v-.56c-3.36-.12-4.16-.72-4.16-2.28V3.92c0-1.52.8-2.16 4.16-2.28v-.52h-13.88v.52c2.88.12 3.88.68 3.88 2.28v10.2h-11.28V3.92c0-1.6.96-2.16 3.84-2.28v-.52h-13.84v.52c3.32.12 4.16.76 4.16 2.28v22.24c0 1.56-.84 2.16-4.16 2.28V29z" fill="#000"/><path d="M158.223 25.32c.76 2.12.04 2.96-3.8 3.12V29h14.32v-.56c-3-.44-3.6-1.08-4.48-3.4L155.223.48h-2.72l-8.28 21.44c-1.64 4.12-3.16 5.84-5.76 6.52V29h9.44v-.56c-3.72-.52-4.36-2.04-2.72-6.36l1.36-3.68h9.2l2.48 6.92zm-11.36-7.72l4.32-11.56h.2l4.08 11.56h-8.6zM172.25 29h15.12v-.56c-3.56-.08-4.64-.76-4.64-2.28V1.84h.96c3.08 0 5.48 3.08 8.28 8.52l.6-.08-.2-9.16h-25.16l-.24 9.16.6.08c2.84-5.56 5.28-8.52 8.32-8.52h1v24.32c0 1.52-1.12 2.2-4.64 2.28V29zm28.477 0h15.12v-.56c-3.56-.08-4.64-.76-4.64-2.28V1.84h.96c3.08 0 5.48 3.08 8.28 8.52l.6-.08-.2-9.16h-25.16l-.24 9.16.6.08c2.84-5.56 5.28-8.52 8.32-8.52h1v24.32c0 1.52-1.12 2.2-4.64 2.28V29zm23.263 0h24.92l.2-10.04-.6-.08c-2.92 6.88-4.76 9.36-10.56 9.36h-3.96V14.88h1.68c3.2 0 5.04 1.4 6.12 5.52h.52V8.72h-.52c-1.08 4.08-2.92 5.44-6.12 5.44h-1.68V1.84h4.16c4.92 0 6.44 2.64 9.24 8.84l.6-.04-.12-9.52h-23.88v.52c3.32.12 4.16.8 4.16 2.32v22.2c0 1.52-.84 2.16-4.16 2.28V29zm38.594-14.44V1.84h2.28c5 0 6.52 2.4 6.52 6.4 0 4.52-1.08 6.32-6.08 6.32h-2.72zm0 .68h2.24c4.56 0 5.64 1.36 6.04 5.4l.32 3.48c.32 3.52 1.16 5.08 6.16 5.08 1.32 0 2.76-.12 4.24-.36v-.48c-3.32-.08-3.88-.6-4.36-3.84l-.24-3.08c-.52-3.76-2.08-6.36-7.96-6.56v-.12c6.28-.88 8.48-3.44 8.48-6.88 0-3.68-2.96-6.76-11.28-6.76h-13.64v.52c3.32.12 4.16.8 4.16 2.32v22.2c0 1.52-.84 2.16-4.16 2.28V29h13.96v-.56c-2.92-.12-3.96-.68-3.96-2.28V15.24zm20.487 14.44h.48l2.36-2c1.92 1.08 4.84 1.84 7.08 1.84 6.88 0 9.68-4.72 9.68-9.36 0-5.2-4.16-6.88-8-8.08-4.68-1.48-7.16-2.96-7.16-6.08 0-3 2.4-4.64 4.92-4.64 3.12 0 5.68 2.56 8.32 8.04h.64V.36h-.48l-1.76 1.76c-1.48-.84-3.76-1.52-6.12-1.52-5.6 0-9.56 3.44-9.56 8.72 0 5.16 4.24 6.72 8.44 8.12 4.8 1.6 7.2 3.16 7.2 6.4 0 2.52-1.88 4.92-5.52 4.92-3.96 0-7.24-3.64-9.88-9.2h-.64v10.12z" fill="#000"/></svg>